<svg width="187" height="40" viewBox="0 0 187 40" fill="none" xmlns="http://www.w3.org/2000/svg">
<path d="M29.892 17.8275C29.3867 18.3359 28.9997 18.9495 28.7587 19.6245C28.5176 20.2995 28.4284 21.0194 28.4973 21.7329L28.4733 21.7089C28.5443 22.5487 28.4309 23.3938 28.1415 24.1854C27.852 24.9769 27.3933 25.6957 26.7975 26.2917C26.2015 26.8875 25.4827 27.3463 24.6911 27.6357C23.8996 27.9251 23.0544 28.0385 22.2147 27.9675L22.2387 27.9915C21.2341 27.8981 20.2252 28.1166 19.3493 28.6175C18.4736 29.1185 17.7736 29.8773 17.3449 30.7906C16.9163 31.7039 16.7796 32.7271 16.9537 33.721C17.128 34.7147 17.6044 35.6306 18.3181 36.3437C19.0319 37.0567 19.9481 37.5323 20.942 37.7055C21.936 37.8789 22.9591 37.7413 23.872 37.3118C24.7849 36.8822 25.5431 36.1817 26.0432 35.3054C26.5433 34.4291 26.7611 33.4201 26.6667 32.4155L26.692 32.4395C26.6211 31.5998 26.7343 30.7546 27.0237 29.963C27.3132 29.1715 27.772 28.4527 28.3679 27.8567C28.9639 27.2609 29.6827 26.8021 30.4741 26.5127C31.2657 26.2233 32.1108 26.1099 32.9507 26.1809L32.9253 26.1569C33.7459 26.2306 34.5719 26.0961 35.3267 25.7657C36.0813 25.4353 36.7405 24.9197 37.2429 24.2667C37.7453 23.6138 38.0749 22.8445 38.2008 22.0303C38.3268 21.2161 38.2452 20.3833 37.9636 19.6089C37.682 18.8346 37.2095 18.1439 36.5899 17.6009C35.9703 17.0578 35.2236 16.6799 34.4191 16.5023C33.6145 16.3247 32.7781 16.353 31.9875 16.5846C31.1968 16.8163 30.4775 17.2438 29.896 17.8275H29.892Z" fill="white"/>
<path d="M20.056 24.8483L20.0307 24.8243C20.7444 24.8962 21.4652 24.8086 22.1411 24.5678C22.8168 24.327 23.4307 23.9391 23.9381 23.4321C24.4455 22.925 24.834 22.3114 25.0752 21.6358C25.3165 20.9602 25.4047 20.2395 25.3333 19.5257L25.3587 19.5497C25.2877 18.7098 25.4011 17.8647 25.6904 17.0731C25.9799 16.2817 26.4387 15.5629 27.0345 14.9669C27.6305 14.371 28.3493 13.9122 29.1408 13.6229C29.9324 13.3333 30.7775 13.2201 31.6173 13.291L31.592 13.267C32.5967 13.3614 33.6059 13.1435 34.4821 12.6431C35.3585 12.1428 36.0591 11.3843 36.4884 10.4711C36.9177 9.55797 37.0549 8.5346 36.8813 7.54059C36.7077 6.54657 36.2317 5.63033 35.5181 4.91681C34.8047 4.20331 33.8884 3.72725 32.8944 3.55363C31.9004 3.37999 30.8771 3.5172 29.9639 3.94656C29.0507 4.37591 28.2923 5.07651 27.7919 5.95279C27.2915 6.82905 27.0736 7.83835 27.168 8.84299L27.144 8.81765C27.2151 9.65751 27.102 10.5028 26.8127 11.2944C26.5233 12.086 26.0645 12.8049 25.4687 13.401C24.8727 13.9969 24.1537 14.4557 23.3621 14.745C22.5704 15.0343 21.7252 15.1474 20.8853 15.0763L20.9093 15.1017C20.1956 15.0298 19.4747 15.1174 18.7989 15.3582C18.1232 15.5989 17.5093 15.9869 17.0019 16.4939C16.4944 17.001 16.106 17.6146 15.8647 18.2902C15.6235 18.9658 15.5353 19.6865 15.6067 20.4003L15.5827 20.3763C15.6533 21.2161 15.5399 22.0611 15.2504 22.8526C14.9608 23.6439 14.5021 24.3627 13.9063 24.9586C13.3103 25.5545 12.5916 26.0131 11.8002 26.3027C11.0088 26.5922 10.1637 26.7057 9.324 26.635L9.348 26.659C8.34336 26.5646 7.33407 26.7825 6.45779 27.2829C5.58152 27.7833 4.88092 28.5417 4.45158 29.4549C4.02222 30.3681 3.88499 31.3914 4.05863 32.3854C4.23227 33.3794 4.70832 34.2957 5.42183 35.0091C6.13535 35.7227 7.05159 36.1987 8.0456 36.3723C9.03962 36.5459 10.063 36.4087 10.9761 35.9794C11.8893 35.5501 12.6478 34.8495 13.1481 33.9733C13.6485 33.0969 13.8664 32.0877 13.772 31.083L13.7973 31.107C13.7264 30.2671 13.8397 29.4221 14.1292 28.6305C14.4185 27.839 14.8773 27.1202 15.4732 26.5242C16.0692 25.9283 16.788 25.4695 17.5795 25.1802C18.3711 24.8907 19.2161 24.7774 20.056 24.8483Z" fill="white"/>
<path d="M11.12 22.1721C11.6254 21.6638 12.0123 21.0502 12.2531 20.3751C12.494 19.7001 12.5828 18.9801 12.5133 18.2667L12.5387 18.2907C12.4677 17.4507 12.581 16.6053 12.8706 15.8135C13.1602 15.0218 13.6192 14.3029 14.2155 13.7069C14.8117 13.1109 15.5308 12.6523 16.3227 12.363C17.1145 12.0737 17.96 11.9608 18.8 12.0321L18.7747 12.0081C19.7789 12.1022 20.7879 11.8842 21.6637 11.3839C22.5396 10.8836 23.2397 10.1253 23.6689 9.21239C24.098 8.29951 24.2351 7.27651 24.0615 6.28287C23.8879 5.28923 23.4119 4.37334 22.6987 3.66008C21.9855 2.94683 21.0695 2.47094 20.0759 2.29731C19.0823 2.12367 18.0592 2.26076 17.1464 2.68986C16.2335 3.11895 15.4752 3.81918 14.9749 4.69504C14.4745 5.57091 14.2565 6.57979 14.3507 7.58408L14.3267 7.56008C14.3976 8.39988 14.2843 9.24504 13.9948 10.0366C13.7053 10.8281 13.2467 11.5469 12.6507 12.1428C12.0548 12.7388 11.336 13.1975 10.5445 13.4869C9.75294 13.7763 8.9078 13.8897 8.068 13.8187L8.092 13.8427C7.27142 13.7691 6.44554 13.9039 5.6909 14.2345C4.93626 14.565 4.27726 15.0807 3.77498 15.7338C3.2727 16.3867 2.9434 17.1561 2.81756 17.9702C2.69173 18.7845 2.77345 19.6173 3.05514 20.3914C3.33684 21.1657 3.80941 21.8562 4.42905 22.3991C5.04869 22.9422 5.79536 23.3199 6.59986 23.4975C7.40436 23.675 8.24066 23.6466 9.03129 23.415C9.8219 23.1833 10.5412 22.7558 11.1227 22.1721H11.12Z" fill="white"/>
<path d="M52.4227 8.87305H56.3827V28.1437H52.4227V8.87305Z" fill="white"/>
<path d="M58.6253 21.5455C58.6199 20.1607 59.0255 18.8052 59.7908 17.6511C60.5561 16.4969 61.6468 15.5959 62.9247 15.0621C64.2025 14.5283 65.61 14.3857 66.9689 14.6525C68.3279 14.9193 69.5771 15.5833 70.5583 16.5607C71.5395 17.5379 72.2085 18.7844 72.4808 20.1423C72.7531 21.5001 72.6161 22.9083 72.0875 24.1883C71.5588 25.4681 70.6621 26.5625 69.5111 27.3324C68.3599 28.1024 67.0063 28.5135 65.6213 28.5135C64.7021 28.524 63.79 28.3511 62.9383 28.0049C62.0865 27.6588 61.3124 27.1464 60.6611 26.4977C60.0096 25.8489 59.4941 25.0768 59.1447 24.2265C58.7951 23.3763 58.6185 22.4648 58.6253 21.5455ZM68.6573 21.5455C68.6408 20.9485 68.4487 20.3697 68.1051 19.8813C67.7613 19.3931 67.2813 19.0168 66.7251 18.7999C66.1687 18.5828 65.5608 18.5345 64.9772 18.6612C64.3936 18.7879 63.8603 19.0836 63.4439 19.5117C63.0276 19.9397 62.7465 20.4811 62.6363 21.068C62.5259 21.6548 62.5908 22.2612 62.8232 22.8113C63.0556 23.3615 63.4449 23.8308 63.9425 24.1608C64.4403 24.4908 65.0243 24.6668 65.6213 24.6668C66.0303 24.6777 66.4371 24.6037 66.8161 24.4496C67.1951 24.2955 67.538 24.0645 67.8232 23.7713C68.1084 23.478 68.3299 23.1288 68.4733 22.7457C68.6169 22.3627 68.6796 21.954 68.6573 21.5455Z" fill="white"/>
<path d="M88.4 14.9452V27.4786C88.4 31.9132 84.9413 33.7879 81.4307 33.7879C80.1947 33.8804 78.9569 33.6307 77.8533 33.0663C76.7499 32.5018 75.8231 31.6443 75.1747 30.5879L78.5533 28.6346C78.8259 29.1852 79.2601 29.6395 79.7979 29.9367C80.3357 30.2338 80.9515 30.3596 81.5627 30.2972C81.9533 30.3514 82.3512 30.317 82.7268 30.1966C83.1023 30.0762 83.446 29.8728 83.7324 29.6018C84.0188 29.3306 84.2405 28.9986 84.3813 28.63C84.522 28.2616 84.578 27.8663 84.5453 27.4732V26.2666C84.0816 26.8339 83.4915 27.2847 82.822 27.5827C82.1525 27.8807 81.4227 28.0176 80.6907 27.9826C78.9491 27.9276 77.2972 27.1972 76.0847 25.9458C74.8721 24.6944 74.1941 23.0203 74.1941 21.2779C74.1941 19.5355 74.8721 17.8614 76.0847 16.61C77.2972 15.3586 78.9491 14.6282 80.6907 14.5732C81.4227 14.5382 82.1525 14.6751 82.822 14.9731C83.4915 15.2711 84.0816 15.7219 84.5453 16.2892V14.9426L88.4 14.9452ZM84.5467 21.2799C84.5733 20.6418 84.4083 20.0102 84.0729 19.4666C83.7376 18.9228 83.2472 18.492 82.6649 18.2295C82.0827 17.9668 81.4352 17.8846 80.8057 17.9931C80.1763 18.1016 79.5937 18.396 79.1329 18.8386C78.6723 19.281 78.3545 19.8511 78.2205 20.4756C78.0867 21.1002 78.1427 21.7506 78.3816 22.343C78.6204 22.9354 79.0311 23.4428 79.5607 23.7999C80.0903 24.157 80.7147 24.3474 81.3533 24.3466C81.7695 24.3756 82.1869 24.3172 82.5791 24.1751C82.9712 24.033 83.3292 23.8102 83.63 23.5214C83.9308 23.2324 84.1679 22.8838 84.3257 22.4976C84.4836 22.1116 84.5589 21.6968 84.5467 21.2799Z" fill="white"/>
<path d="M90.6427 21.5455C90.6372 20.1607 91.0427 18.8052 91.8081 17.6511C92.5735 16.4969 93.6641 15.5959 94.942 15.0621C96.2199 14.5283 97.6273 14.3857 98.9863 14.6525C100.345 14.9193 101.594 15.5833 102.576 16.5607C103.557 17.5379 104.226 18.7844 104.498 20.1423C104.77 21.5001 104.633 22.9083 104.105 24.1883C103.576 25.4681 102.679 26.5625 101.528 27.3324C100.377 28.1024 99.0236 28.5135 97.6387 28.5135C96.7195 28.524 95.8072 28.3511 94.9556 28.0049C94.1039 27.6588 93.3297 27.1464 92.6784 26.4977C92.0269 25.8489 91.5115 25.0768 91.162 24.2265C90.8124 23.3763 90.6359 22.4648 90.6427 21.5455ZM100.675 21.5455C100.658 20.9485 100.466 20.3697 100.122 19.8813C99.7787 19.3931 99.2987 19.0168 98.7424 18.7999C98.186 18.5828 97.578 18.5345 96.9945 18.6612C96.4109 18.7879 95.8776 19.0836 95.4612 19.5117C95.0449 19.9397 94.7639 20.4811 94.6535 21.068C94.5431 21.6548 94.6081 22.2612 94.8405 22.8113C95.0729 23.3615 95.4623 23.8308 95.9599 24.1608C96.4576 24.4908 97.0415 24.6668 97.6387 24.6668C98.0476 24.6777 98.4544 24.6037 98.8333 24.4496C99.2124 24.2955 99.5553 24.0645 99.8405 23.7713C100.126 23.478 100.347 23.1288 100.491 22.7457C100.634 22.3627 100.697 21.954 100.675 21.5455Z" fill="white"/>
<path d="M106.481 11.4077C106.481 10.9378 106.621 10.4784 106.882 10.0877C107.143 9.69698 107.514 9.39243 107.948 9.21261C108.382 9.03277 108.86 8.98571 109.321 9.07739C109.782 9.16907 110.205 9.39537 110.537 9.72766C110.87 10.0599 111.096 10.4833 111.188 10.9442C111.279 11.4051 111.232 11.8828 111.053 12.317C110.873 12.7512 110.568 13.1222 110.177 13.3833C109.787 13.6444 109.327 13.7837 108.857 13.7837C108.229 13.7775 107.628 13.5252 107.184 13.0809C106.74 12.6367 106.488 12.036 106.481 11.4077ZM106.881 14.9451H110.843V28.1451H106.876L106.881 14.9451Z" fill="white"/>
<path d="M127.941 21.545C127.987 22.4174 127.86 23.2902 127.567 24.1133C127.275 24.9364 126.822 25.6934 126.236 26.341C125.649 26.9885 124.941 27.5138 124.151 27.8866C123.361 28.2593 122.505 28.4722 121.632 28.513C120.898 28.553 120.165 28.4293 119.485 28.1508C118.804 27.8721 118.195 27.4457 117.7 26.9024V33.4237H113.74V14.945H117.7V16.185C118.195 15.6421 118.805 15.216 119.485 14.9377C120.165 14.6593 120.898 14.5357 121.632 14.5757C122.505 14.6164 123.361 14.8292 124.151 15.202C124.941 15.5748 125.65 16.1001 126.237 16.7478C126.823 17.3956 127.275 18.1529 127.568 18.9762C127.861 19.7994 127.987 20.6725 127.941 21.545ZM123.981 21.545C123.966 20.9273 123.769 20.3278 123.414 19.8216C123.059 19.3154 122.564 18.925 121.988 18.6994C121.413 18.4737 120.784 18.4226 120.18 18.5528C119.576 18.6828 119.023 18.9881 118.592 19.4305C118.161 19.873 117.869 20.4328 117.754 21.0401C117.64 21.6473 117.706 22.2748 117.947 22.8442C118.187 23.4137 118.589 23.8996 119.104 24.2413C119.619 24.5829 120.223 24.7652 120.841 24.765C121.266 24.784 121.689 24.7129 122.084 24.5566C122.479 24.4005 122.836 24.1625 123.133 23.8585C123.429 23.5544 123.658 23.1912 123.804 22.7925C123.951 22.3938 124.011 21.9686 123.981 21.545Z" fill="white"/>
<path d="M140.161 24.1836C140.161 27.2196 137.523 28.513 134.672 28.513C133.52 28.6172 132.364 28.3738 131.352 27.8136C130.34 27.2536 129.519 26.403 128.996 25.3716L132.427 23.4183C132.565 23.895 132.864 24.3098 133.271 24.5931C133.679 24.8766 134.172 25.0116 134.667 24.9756C135.616 24.9756 136.092 24.685 136.092 24.1583C136.092 22.705 129.597 23.4716 129.597 18.905C129.597 16.0263 132.027 14.5756 134.772 14.5756C135.804 14.543 136.825 14.7878 137.731 15.2844C138.636 15.7812 139.392 16.5116 139.919 17.3996L136.54 19.221C136.392 18.8752 136.145 18.5807 135.831 18.3742C135.516 18.1676 135.148 18.0583 134.772 18.0596C134.085 18.0596 133.663 18.3263 133.663 18.7983C133.668 20.3036 140.161 19.2996 140.161 24.1836Z" fill="white"/>
<path d="M154.627 14.9453V28.1453H150.667V26.904C150.209 27.4517 149.629 27.8833 148.973 28.1633C148.317 28.4433 147.605 28.5637 146.893 28.5146C144.227 28.5146 141.96 26.6146 141.96 23.048V14.9453H145.92V22.468C145.887 22.7824 145.923 23.1002 146.025 23.3993C146.127 23.6985 146.293 23.9718 146.512 24.2002C146.731 24.4286 146.996 24.6066 147.291 24.722C147.584 24.8373 147.9 24.8872 148.216 24.868C149.668 24.868 150.671 24.024 150.671 22.1493V14.9493L154.627 14.9453Z" fill="white"/>
<path d="M177.333 20.0405V28.1445H173.373V20.3831C173.373 19.0631 172.74 18.2191 171.473 18.2191C170.153 18.2191 169.413 19.1431 169.413 20.7005V28.1445H165.455V20.3831C165.455 19.0631 164.821 18.2191 163.553 18.2191C162.233 18.2191 161.495 19.1431 161.495 20.7005V28.1445H157.535V14.9445H161.495V16.1578C161.905 15.6195 162.444 15.1926 163.061 14.9162C163.68 14.6397 164.357 14.5225 165.032 14.5751C165.709 14.5419 166.384 14.685 166.991 14.9902C167.596 15.2953 168.112 15.7523 168.489 16.3165C168.928 15.7262 169.509 15.2569 170.179 14.9523C170.848 14.6478 171.584 14.5181 172.317 14.5751C175.348 14.5765 177.333 16.7405 177.333 20.0405Z" fill="white"/>
<path d="M180.683 14.8641C182.305 14.8641 183.621 13.5484 183.621 11.9255C183.621 10.3025 182.305 8.98682 180.683 8.98682C179.06 8.98682 177.744 10.3025 177.744 11.9255C177.744 13.5484 179.06 14.8641 180.683 14.8641Z" fill="white"/>
</svg>
