<svg width="100" height="95" viewBox="0 0 100 95" fill="none" xmlns="http://www.w3.org/2000/svg">
<g clip-path="url(#clip0_76_604)">
<path d="M50 87.1659C26.9875 87.1659 8.33331 69.6181 8.33331 47.9704C8.33331 26.3227 26.9875 8.7749 50 8.7749C73.0125 8.7749 91.6667 26.3227 91.6667 47.9704C91.6667 69.6181 73.0125 87.1659 50 87.1659ZM44.2583 33.9188C44.0075 33.7614 43.7161 33.671 43.415 33.6571C43.1139 33.6432 42.8144 33.7063 42.5485 33.8399C42.2826 33.9734 42.0601 34.1723 41.9048 34.4153C41.7495 34.6584 41.6672 34.9365 41.6666 35.2201V60.7207C41.6672 61.0043 41.7495 61.2824 41.9048 61.5254C42.0601 61.7685 42.2826 61.9674 42.5485 62.1009C42.8144 62.2344 43.1139 62.2976 43.415 62.2837C43.7161 62.2698 44.0075 62.1794 44.2583 62.022L64.5875 49.2756C64.8161 49.1325 65.0036 48.9385 65.1332 48.7107C65.2629 48.483 65.3308 48.2287 65.3308 47.9704C65.3308 47.7121 65.2629 47.4578 65.1332 47.23C65.0036 47.0023 64.8161 46.8083 64.5875 46.6652L44.2583 33.9188Z" fill="white"/>
</g>
<defs>
<clipPath id="clip0_76_604">
<rect width="100" height="94.0692" fill="white" transform="translate(0 0.935791)"/>
</clipPath>
</defs>
</svg>
